# xmcd
#
# Track frame offsets:
#	150
#	17696
#	26617
#	39207
#	54108
#	70088
#	88809
#	106418
#	124827
#	143484
#	157695
#	184086
#	195084
#	211260
#	223361
#	236147
#	256891
#	271464
#	291045
#	301118
#	320428
#
# Disc length: 4587 seconds
#
# Revision: 0
# Processed by: cddbd v1.5.2PL0 Copyright (c) Steve Scherf et al.
# Submitted via: dBpowerAMP V4.0
#
DISCID=1b11e915
DTITLE=beagles - viti parallele
DYEAR=1900
DGENRE=
TTITLE0=presentazioni
TTITLE1=intro
TTITLE2=telefonata a gilmur
TTITLE3=the ball
TTITLE4=la nostra operazione
TTITLE5=udu d pe
TTITLE6=balourdes
TTITLE7=la ragazza di campagna
TTITLE8=deleterio blues
TTITLE9=le mei cargal che lempal
TTITLE10=il buongiorno si vede dal quintino
TTITLE11=la gha un fia
TTITLE12=opla
TTITLE13=pele
TTITLE14=lobia
TTITLE15=i studian mai
TTITLE16=sip
TTITLE17=maria
TTITLE18=risposta
TTITLE19=turno di notte
TTITLE20=disco ciula remix
EXTD=
EXTT0=
EXTT1=
EXTT2=
EXTT3=
EXTT4=
EXTT5=
EXTT6=
EXTT7=
EXTT8=
EXTT9=
EXTT10=
EXTT11=
EXTT12=
EXTT13=
EXTT14=
EXTT15=
EXTT16=
EXTT17=
EXTT18=
EXTT19=
EXTT20=
PLAYORDER=
